<?xml version="1.0" encoding="UTF-8"?>
<svg id="Layer_1" xmlns="http://www.w3.org/2000/svg" xmlns:xlink="http://www.w3.org/1999/xlink" version="1.1" viewBox="0 0 1070 172.636">
  <!-- Generator: Adobe Illustrator 30.2.1, SVG Export Plug-In . SVG Version: 2.1.1 Build 1)  -->
  <defs>
    <linearGradient id="linear-gradient" x1="229.432" y1="3969.73" x2="467.758" y2="3969.73" gradientTransform="translate(-77.549 -3826) scale(.97 1)" gradientUnits="userSpaceOnUse">
      <stop offset="0" stop-color="#fff" stop-opacity="0"/>
      <stop offset="1" stop-color="#000"/>
    </linearGradient>
    <linearGradient id="linear-gradient1" x1="-6428.009" y1="-3636.279" x2="-6175.62" y2="-3636.279" gradientTransform="translate(-5306.169 -3492.549) rotate(-180) scale(.97 1)" gradientUnits="userSpaceOnUse">
      <stop offset="0" stop-color="#000" stop-opacity="0"/>
      <stop offset="1" stop-color="#000"/>
    </linearGradient>
  </defs>
  <g isolation="isolate">
    <g isolation="isolate">
      <text transform="translate(406.106 158.809)" font-family="Garet-Book, Garet" font-size="45" isolation="isolate"><tspan x="0" y="0">TATUERING</tspan></text>
    </g>
  </g>
  <path d="M119.351,35.63v67.793c-.447.446-.966.744-1.561,1.088l-57.445,33.194L3.19,104.683c-.655-.378-1.237-.727-1.783-1.159V35.731c.27-.134.429-.415.743-.596L60.352,1.509s58.999,34.121,58.999,34.121ZM77.564,25.34c.462.266.882.065,1.184-.155.392-.409.809-.663,1.272-.987,2.04-1.179,3.992-2.429,6.019-3.819l-25.687-14.86-25.846,14.955,7.736,4.64c.589.48,1.259.46,1.825-.065l14.923-8.816c.954-.564,1.834-.555,2.78-.009l15.795,9.115h0ZM61.335,28.24l8.237-5.02-8.246-4.741c-.602-.346-1.15-.505-1.739-.035l-7.619,4.441c-.294.172-.564.354-.7.637l8.047,4.685c.714.416,1.251.502,2.019.033h0ZM35.44,30.285l5.615-3.504-8.765-4.997.309,10.034c.997-.431,1.872-.944,2.841-1.533ZM87.518,31.042v-8.863l-7.264,4.676,7.264,4.186h0ZM107.009,61.556c.045.582.255.899.666,1.17l8.041,4.291.01-29.472-25.876-14.956-.201,8.846c-.071.632.178,1.12.746,1.427l15.997,9.05c.433.245.679.675.677,1.19l-.061,18.455h0ZM13.659,57.508l.075-12.891c.008-1.339.739-2.09,1.835-2.73l14.078-8.223c.578-.385.847-.891.889-1.586l-.374-9.09-25.141,14.534.014,29.996c2.631-1.606,5.012-3.173,7.667-4.379.728-.221,1.149-.755,1.108-1.524l-.151-4.106h0ZM93.399,37.565c.002-.391-.284-.616-.489-.795l-3.34-1.786-.097,6.725c-.006.406-.221.843-.481,1.026-.283.199-.695.207-1.053,0l-17.985-10.395c-.308-.178-.448-.469-.491-.719-.126-.727.911-1.385,1.551-1.785l4.643-2.905-3.863-2.302c-.391-.233-.838.229-1.161.418l-7.873,4.95c2.29,1.616,4.621,2.88,6.978,4.224.877.5,1.614,1.084,2.511,1.53.368.289.543.698.544,1.202l.018,10.903c1.217-.501,2.282-1.098,3.38-1.784l5.811-3.632c.984-.571,1.881-.213,2.756.364,2.771,1.829,5.635,3.375,8.6,5.088l.043-10.329-.002.002h0ZM27.273,38.302l.051,9.821,8.886-4.987c.735-.598,1.433-.468,2.201-.051l9.417,5.125.159-11.352c.008-.596.375-1.013.841-1.314l9.027-5.159c.109-.062.217-.188.237-.26s-.116-.19-.22-.251l-8.235-4.869c-.486-.287-.866-.219-1.336.085l-2.84,1.838c1.519,1.039,3.065,1.772,4.418,2.858.455.365.748.812.719,1.353-.027.495-.349.886-.805,1.185-1.25.822-2.551,1.414-3.864,2.181l-10.926,6.378c-.989.577-2.906,1.66-3.821.917-.264-.215-.487-.638-.491-1.078l-.048-5.087c-.871.285-1.559.877-2.365,1.268-.581.282-1.009.635-1.005,1.398h0ZM32.984,39.485c5.16-2.72,9.951-5.574,14.926-8.49l-4.561-2.875-5.431,3.095c-1.531.956-3.023,1.82-4.614,2.654-.351.188-.566.529-.566.952,0,1.545.04,3.068.246,4.664ZM87.439,34.589c.02-.489.062-.914-.352-1.175l-8.186-4.684c-.606-.516-1.218-.374-1.832.027l-4.116,2.685c4.732,2.921,9.389,5.599,14.273,8.264,0,0,.213-5.117.213-5.117ZM61.399,54.7l8.569-5.053c.377-.222.602-.571.602-1.033v-10.66c0-.568-.25-.864-.707-1.132l-9.092-5.318c-.581-.34-1.06.206-1.53.481l-8.381,4.903c-.45.263-.751.478-.757,1.07l-.118,10.956c-.006.558.2.77.645,1.017l9.75,5.411c.435-.084.623-.409,1.017-.641h.002ZM104.849,54.409l.065-9.763c-.112-.626-.309-1.229-.892-1.566l-8.339-4.81-.25,10.236c-.011.443.255.77.562.987l3.3,1.824c1.044.577,2.072,1.011,3.064,1.679.785.529,1.574,1.089,2.49,1.411,0,0,0,.002,0,.002ZM16.606,54.668l7.832-4.583c.406-.238.656-.683.654-1.172l-.035-9.601c0-.113-.044-.261-.105-.273s-.195-.005-.294.053l-7.758,4.588c-.358.212-1.035.335-1.034.864l.013,10.332c.284.067.468-.058.726-.209h.001ZM83.921,68.029l8.962-5.335c.299-.178.52-.441.522-.809l.062-10.64c.003-.535-.172-.947-.634-1.215l-9.052-5.244c-.491-.285-1.015-.202-1.478.052-1.658.908-3.208,1.859-4.827,2.84l-4.079,2.471c-.393.238-.632.616-.632,1.108l-.012,10.55c0,.812.441.995,1.044,1.335,2.686,1.52,5.403,3.006,8.001,4.668.812.519,1.154.795,2.122.219h.001ZM36.76,68.434c.799.476,1.384.141,2.061-.263l8.626-5.151c.509-.304.434-.862.433-1.397l-.024-10.268c0-.571-.339-.988-.847-1.275l-9.201-5.211c-1.265.418-2.32,1.007-3.358,1.734-1.384.969-2.806,1.696-4.315,2.424-.758.365-1.312,1.053-2.132,1.288-.454.13-.718.435-.719.932l-.025,10.779c0,.324-.093.851.197,1.04.917.599,1.899.96,2.85,1.526l6.453,3.842h0ZM104.847,81.719l-.043-4.281-5.552,3.185c-.364.209-.919.207-1.223-.032-.235-.184-.548-.643-.569-1.074-.134-2.817.041-5.596.081-8.457l.112-7.974c.02-1.42.363-2.695-.013-4.104-.082-.309.127-.801.342-.941.245-.161.686-.232,1.013-.058l5.809,3.086c.083-1.185.024-2.325.045-3.48.009-.512-.327-.872-.779-1.058l-8.069-4.644c-.099-.057-.237-.056-.297-.055s-.124.156-.125.261l-.021,10.121c-.002.989-.49,1.83-1.33,2.312l-6.717,3.856c-.769.441-1.395.957-2.237,1.36.304.392.624.55,1.008.758l8.467,4.599c.499.271.956.846.897,1.429-.171,1.673.018,3.252-.02,4.942-.046,2.053-.249,4.038.013,6.12,1.019-.387,1.863-.957,2.768-1.489l5.693-3.348c.408-.24.756-.45.75-1.035h-.003ZM70.065,62.907c.372-.273.458-.587.515-.997l-.057-10.051-9.089,5.298.034,10.871,8.596-5.121h0ZM59.377,68.171l.012-10.064c-.028-.523-.23-.93-.657-1.197l-4.178-2.466c-1.461-.862-2.872-1.678-4.427-2.422l-.013,10.096c0,.413.145.723.486.918l6.031,3.434c.947.539,1.732,1.227,2.746,1.702h0ZM15.949,82.533c.122.615.909.771,1.267,1.154,1.372.546,2.408,1.462,3.666,2.163l4.161,2.317.013-11.224c0-.918.508-.962,1.157-1.348l9.166-5.449-9.09-5.255c-.838-.553-1.261-1.37-1.279-2.382l.032-10.345-8.56,4.879c-.428.244-.694.51-.668,1.048l.067,3.203,5.283-2.881c.232-.127.544-.065.719.009.637.271.548,2.796.538,3.533l-.21,15.873c-.014,1.046-.236,2.001-.666,2.886-.306.629-.974.75-1.557.412l-4.12-2.389c.019,1.251-.17,2.528.08,3.796,0,0,.001,0,.001,0ZM104.86,74.262v-9.92c-.026-.475-.212-.818-.619-1.028l-4.384-2.267c-.332,5.688-.302,11.218-.271,16.91l4.711-2.661c.374-.211.539-.527.562-1.034h.001ZM16.428,76.421c1.346.458,2.509,1.125,3.764,2.008l.146-17.069-3.914,1.977c-.402.203-.602.531-.647,1.005l-.014,11.133c.019.459.243.802.665.946ZM72.762,74.617l8.035-4.768-8.976-5.266c-.495-.046-.809.191-1.166.475l-8.07,4.914,8.587,4.923c.561.253,1.072.106,1.59-.278ZM49.75,74.871l8.391-4.91-8.099-4.728c-.754-.44-1.603-.364-2.286.105-.738.585-1.48,1.053-2.307,1.519l-5.675,3.198,7.746,4.604c.706.42,1.377.712,2.23.213h0ZM114.939,69.178l-7.807-4.206-.068,8.785,7.875-4.579ZM13.663,74.935l-.004-9.886-8.447,4.792c-.138.162-.253.308-.22.465.021.101.088.3.244.378l8.428,4.251s-.001,0-.001,0ZM82.331,94.723c.486.281.972.26,1.409.004l9.178-5.4c.328-.219.586-.547.583-.983l-.074-11.407-9.158-5.315c-.801-.465-1.672-.373-2.46.021l-6.572,4.105c-.712.445-1.294.908-2.122,1.121-.221.057-.338.431-.338.67l-.005,10.965c0,.548.303.857.734,1.107l8.827,5.112h-.002ZM36.98,95.032c.658.371,1.236-.06,1.762-.361l8.637-4.938c.39-.223.566-.616.566-1.096l-.004-11.16c0-.521-.696-.576-1.049-.777l-9.214-5.273c-1.081.251-1.869.932-2.778,1.524-2.253,1.465-4.559,2.766-6.934,4.024-.369.195-.68.382-.68.87v11.064c0,.34.178.757.477.867.852.313,1.445.87,2.226,1.311l6.992,3.946h0ZM93.861,104.786l-3.876,2.138c-.733.32-.896,1.097-.678,1.843l.608,7.828,25.84-14.944-.04-30.312-8.045,4.386c-.299.162-.456.362-.501.727l-.094,19.799c-.003.694-.386,1.075-.939,1.347-3.121,1.531-5.921,3.506-8.914,5.241l-3.361,1.948h0ZM70.499,87.771l.002-10.715c-3.22-1.68-5.689-3.538-8.961-5.168l-.143,9.98c-.006.403.091.778.471.934,1.052.432,1.982.983,2.965,1.572l5.667,3.397h0ZM58.419,83.095c.735-.402.995-1.051.988-1.838l-.08-9.397-8.796,5.067c-.399.44-.47.941-.39,1.517l-.049,9.48,8.327-4.83h0ZM14.94,98.142c-.932-.539-1.152-1.399-1.153-2.375l-.004-10.772c0-2.399.075-4.679-.184-7.047-.029-.416-.266-.706-.639-.881l-7.942-4.024-.009,28.648,25.386,14.67.205-8.301c-.032-.562-.223-.986-.71-1.278l-14.949-8.638v-.002h-.001ZM61.352,108.042l8.672-5.248c.36-.218.543-.56.545-.992l.033-9.856c.004-1.15-.488-1.969-1.517-2.463-2.65-1.272-5.062-2.863-7.575-4.403-.559-.343-1.288-.634-1.907-.27l-5.207,3.071c-1.164.687-2.111,1.51-3.42,1.937-.601.196-.95.899-.954,1.544l-.064,10.552c-.003.549.327.839.765,1.093l8.783,5.092c.34.197.544.458.922.442.353-.015.549-.273.924-.5h0ZM104.232,96.151c.461-.258.617-.615.647-1.095l.033-9.441c-.058-.268.003-.521-.166-.71l-9.216,5.277c-.029,3.663-.123,7.244.111,11.028l8.591-5.058h0ZM25.11,91.298c-.081-.486-.252-.771-.627-.977l-8.559-4.964-.029,10.891,9.168,5.302.048-10.253h0ZM75.407,112.874l-5.783-3.447c-.279-.245-.554-.484-.555-.834,0-.287.2-.631.534-.832l16.967-10.191c.553-.332,1.221-.47,1.773-.232.415.179.486.72.483,1.146-.015,2.137-.08,4.225.297,6.408l3.415-1.971c.55-.317.911-.638.908-1.317l-.044-10.021c-.891.264-1.473.828-2.208,1.237l-4.463,2.487c-.83.463-1.618.871-2.341,1.493-.695.497-1.587.644-2.373.199l-9.216-5.217-.009,10.722c0,.965-.592,1.523-1.381,1.996l-8.933,5.299,8.294,4.86c.598.35,1.28.352,1.841-.029.905-.616,1.925-.986,2.792-1.757h.002ZM49.514,115.023l7.449-4.438c.454-.27.939-.333,1.355-.75l-8.872-5.039c-.939-.533-1.591-1.264-1.592-2.395l-.006-10.468c-1.745.758-3.094,1.822-4.632,2.706l-4.283,2.459c-.764.491-1.624.603-2.449.169l-9.166-5.264-.018,10.766,3.201,1.825.192-6.348c.068-.358.176-.702.439-.842s.627-.177.932-.06c1.263.485,2.361,1.134,3.533,1.844l14.416,8.733c.46.279.645.824.631,1.27-.014.461-.287.945-.734,1.211-1.515.899-3.017,1.756-4.513,2.786l3.004,1.808c.349.21.751.244,1.114.028h0ZM43.615,111.605l4.303-2.666-5.875-3.507-9.098-5.32-.275,4.526c-.05.83.299,1.485,1.007,1.915l8.821,5.06c.32.183.768.209,1.117-.007h0ZM78.997,110.777l8.14-4.773-.623-5.891c-4.809,2.728-9.356,5.455-14.024,8.442l4.659,2.777c.667.397,1.319-.014,1.849-.554h0ZM33.464,117.778l7.45-4.502-8.185-4.769-.155,8.785c.069.241.113.441.295.508.162.06.321.034.595-.022ZM87.778,117.32l-.618-8.611-7.224,4.2s7.842,4.411,7.842,4.411ZM60.02,121.858c.609.206.935-.134,1.381-.403l8.19-4.931-8.083-4.847c-.689-.413-1.382-.583-2.09-.112l-6.829,4.126c-.518.313-1.074.397-1.554.852,3.098,1.901,5.937,3.254,8.985,5.315ZM42.019,115.063l-6.764,4.106,24.203,14.039c.695.403,1.05.417,1.749.011l24.753-14.347-6.87-4.024c-1.02-.518-2.122-.444-2.991.263-1.372.938-2.743,1.714-4.184,2.574l-9.776,5.836c-.98.585-1.766.956-2.873.314l-15.803-9.172c-.497-.288-.996.129-1.444.401h0Z"/>
  <g id="ANDREAS_ENGBLOM">
    <g isolation="isolate">
      <g isolation="isolate">
        <text transform="translate(142.576 97.445)" font-family="Garet-Book, Garet" font-size="77.548" isolation="isolate"><tspan x="0" y="0">ANDREAS ENGBLOM</tspan></text>
      </g>
    </g>
  </g>
  <line x1="376.176" y1="143.73" x2="145" y2="143.73" fill="none" stroke="url(#linear-gradient)" stroke-miterlimit="10" stroke-width="3"/>
  <line x1="684.183" y1="143.73" x2="929" y2="143.73" fill="none" stroke="url(#linear-gradient1)" stroke-miterlimit="10" stroke-width="3"/>
</svg>